<?xml version="1.0" encoding="utf-8"?>
<!-- Generator: Adobe Illustrator 22.1.0, SVG Export Plug-In . SVG Version: 6.00 Build 0)  -->
<svg version="1.1" id="Layer_1" xmlns="http://www.w3.org/2000/svg" xmlns:xlink="http://www.w3.org/1999/xlink" x="0px" y="0px"
	 viewBox="0 0 41.5 41.5" style="enable-background:new 0 0 41.5 41.5;" xml:space="preserve">
<style type="text/css">
	.st0{fill:#E9654B;}
	.st1{fill:#B6CFEA;}
	.st2{fill:#E6F5F8;}
	.st3{fill:#D0E8F0;}
	.st4{fill:#EE794B;}
	.st5{clip-path:url(#SVGID_2_);}
	.st6{opacity:0.22;}
	.st7{fill:#E34E3B;}
	.st8{opacity:0.5;}
	.st9{fill:#FBDFC3;}
	.st10{fill:#010101;}
	.st11{fill:#FFFFFF;}
	.st12{opacity:0.25;}
</style>
<g>
	<g>
		<g>
			<path class="st0" d="M16,27.7c0,0-0.2,0.6-0.5,0.9c-0.2,0.2-0.4,0.3-0.7,0.3c-0.7,0.2-1.5,0.3-1.5,0.3s0.7,0.1,1.5,0.2
				c0.3,0,0.3,0,0.5,0.1c0.5,0,0.7-0.3,0.7-0.3V27.7z"/>
		</g>
		<g>
			<path class="st0" d="M25.2,27.7c0,0,0.2,0.6,0.5,0.9c0.2,0.2,0.4,0.3,0.7,0.3c0.7,0.2,1.5,0.3,1.5,0.3s-0.7,0.1-1.6,0.2
				c-0.3,0-0.3,0-0.5,0.1c-0.6,0-0.7-0.3-0.7-0.3L25.2,27.7z"/>
		</g>
	</g>
	<g>
		<g>
			<circle class="st1" cx="20.7" cy="17.8" r="10.8"/>
		</g>
		<g>
			<circle class="st2" cx="20.7" cy="17.8" r="10.4"/>
		</g>
		<g>
			<circle class="st3" cx="20.7" cy="18" r="8.5"/>
		</g>
		<g id="Body_1_">
			<g>
				<path class="st4" d="M15.7,22c0,0,0.7,11.3,0.7,11.5c0,0.1,0.1,0.3-0.4,0.5s-2.1,0.6-2.1,0.6s1.2,0,2.4,0c1.1,0,1.1-0.9,1.1-1.1
					s0.3-4.5,0.3-4.5s0.1,5.1,0.1,5.3S17.7,34.8,17,35c-0.5,0.1-2,0.4-2,0.4s1.7,0,2.3,0c1.4,0,1.4-0.9,1.4-0.9L19,30
					c0,0,0.1,4.5,0.1,5c0,0.4-0.3,0.7-1.4,0.9c-0.7,0.2-1.6,0.4-1.6,0.4s1.9,0,2.6,0c1.3-0.1,1.5-1,1.5-1l2.2-11.2L15.7,22z"/>
			</g>
			<g>
				<path class="st4" d="M25.7,22c0,0-0.7,11.3-0.7,11.5c0,0.1-0.1,0.3,0.4,0.5s2.1,0.6,2.1,0.6s-1.2,0-2.4,0
					c-1.1,0-1.1-0.9-1.1-1.1S23.7,29,23.7,29s-0.1,5.1-0.1,5.3s0.1,0.5,0.8,0.7c0.5,0.1,2,0.4,2,0.4s-1.7,0-2.3,0
					c-1.4,0-1.4-0.9-1.4-0.9L22.4,30c0,0-0.1,4.5-0.1,5c0,0.4,0.3,0.7,1.4,0.9c0.7,0.2,1.6,0.4,1.6,0.4s-1.9,0-2.6,0
					c-1.3-0.1-1.5-1-1.5-1L19,24.1L25.7,22z"/>
			</g>
			<g>
				<path class="st4" d="M25.8,16.5c0,2.8-2.3,5-5,5s-5-2.3-5-5s2.3-5,5-5S25.8,13.7,25.8,16.5z"/>
			</g>
			<g>
				<g>
					<defs>
						<polyline id="SVGID_1_" points="25.8,16.3 25.2,30 16.2,30 15.7,16.3 						"/>
					</defs>
					<clipPath id="SVGID_2_">
						<use xlink:href="#SVGID_1_"  style="overflow:visible;"/>
					</clipPath>
					<g class="st5">
						<circle class="st4" cx="20.8" cy="19.2" r="8.9"/>
					</g>
				</g>
			</g>
			<g class="st6">
				<path class="st7" d="M25.5,22c0,0,0.6-5.3-0.2-7.3c-1.5-3.5-5-3.2-5-3.2s2,0.8,2.1,3.8c0.1,2.1,0,5.2,0,5.2L25.5,22z"/>
			</g>
		</g>
		<g id="Face_1_">
			<g class="st8">
				<g>
					<circle class="st9" cx="18.7" cy="13.8" r="0.7"/>
				</g>
			</g>
			<g>
				<g>
					<g>
						<path class="st10" d="M22.5,24c0,1.7-0.8,2.8-1.8,2.8s-1.8-1.3-1.8-3c0,0,0.8,1.6,1.9,1.6S22.5,24,22.5,24z"/>
					</g>
					<g>
						<path class="st11" d="M22.5,24c0,1.1-0.8,1.7-1.8,1.7S19,24.9,19,23.9c0,0,0.8,1,1.9,1S22.5,24,22.5,24z"/>
					</g>
				</g>
				<g>
					<g>
						<g>
							<g>
								<circle class="st0" cx="24.2" cy="19.3" r="3.1"/>
							</g>
							<g>
								<circle class="st0" cx="17.2" cy="19.3" r="3.1"/>
							</g>
						</g>
						<g>
							<g>
								<circle class="st11" cx="24.2" cy="19.3" r="2.4"/>
							</g>
							<g>
								<circle class="st11" cx="17" cy="19.3" r="2.4"/>
							</g>
						</g>
					</g>
					<g>
						<g>
							<circle class="st10" cx="17" cy="19" r="0.7"/>
						</g>
						<g>
							<circle class="st10" cx="24.2" cy="19" r="0.7"/>
						</g>
					</g>
				</g>
			</g>
		</g>
		<g>
			<path class="st1" d="M9.7,20.5L9.7,20.5c-0.3,0-0.5-0.2-0.5-0.5V16c0-0.3,0.2-0.5,0.5-0.5l0,0c0.3,0,0.5,0.2,0.5,0.5V20
				C10.2,20.3,10,20.5,9.7,20.5z"/>
		</g>
		<g>
			<path class="st1" d="M31.5,20.5L31.5,20.5c-0.3,0-0.5-0.2-0.5-0.5V16c0-0.3,0.2-0.5,0.5-0.5l0,0c0.3,0,0.5,0.2,0.5,0.5V20
				C32,20.3,31.8,20.5,31.5,20.5z"/>
		</g>
		<g>
			<circle class="st11" cx="17.3" cy="9.8" r="0.5"/>
		</g>
		<g>
			<path class="st11" d="M13.7,23.3c-0.1,0-0.2,0-0.3-0.1c-1.2-1.5-1.8-3.4-1.8-5.3c0-1.6,0.4-3.1,1.2-4.5c0.8-1.3,1.9-2.4,3.2-3.2
				c0.2-0.1,0.4,0,0.5,0.1c0.1,0.2,0,0.4-0.1,0.5c-2.5,1.4-4.1,4.1-4.1,7c0,1.8,0.6,3.5,1.7,4.9c0.1,0.1,0.1,0.4-0.1,0.5
				C13.8,23.3,13.8,23.3,13.7,23.3z"/>
		</g>
		<g class="st12">
			<path class="st0" d="M25.2,28v-0.8c-1.4,0.8-2.9,1.6-4.7,1.6c-2,0-3.3-0.9-4.6-1.6L16,28c0,0,1.5,1.6,4.6,1.6
				C23.5,29.5,25.2,28,25.2,28z"/>
		</g>
	</g>
</g>
</svg>
