<?xml version="1.0" encoding="UTF-8"?>
<svg width="337px" height="318px" viewBox="0 0 337 318" version="1.1" xmlns="http://www.w3.org/2000/svg" xmlns:xlink="http://www.w3.org/1999/xlink">
    <!-- Generator: Sketch 45 (43475) - http://www.bohemiancoding.com/sketch -->
    <title>Artboard 7</title>
    <desc>Created with Sketch.</desc>
    <defs>
        <filter x="-2.1%" y="-1.6%" width="104.3%" height="104.4%" filterUnits="objectBoundingBox" id="filter-1">
            <feOffset dx="0" dy="2" in="SourceAlpha" result="shadowOffsetOuter1"></feOffset>
            <feGaussianBlur stdDeviation="2" in="shadowOffsetOuter1" result="shadowBlurOuter1"></feGaussianBlur>
            <feColorMatrix values="0 0 0 0 0   0 0 0 0 0   0 0 0 0 0  0 0 0 0 0" type="matrix" in="shadowBlurOuter1" result="shadowMatrixOuter1"></feColorMatrix>
            <feMerge>
                <feMergeNode in="shadowMatrixOuter1"></feMergeNode>
                <feMergeNode in="SourceGraphic"></feMergeNode>
            </feMerge>
        </filter>
        <path d="M153.435181,307.210565 C68.7791506,307.210565 0.151374494,238.582789 0.151374494,153.92598 C0.151374494,69.269171 68.7791506,0.641394912 153.435181,0.641394912 C238.09199,0.641394912 306.719766,69.269171 306.719766,153.92598 C306.719766,238.582789 238.09199,307.210565 153.435181,307.210565 Z" id="path-2"></path>
        <polygon id="path-4" points="306.719766 0.641628515 306.719766 307.210565 0.151374494 307.210565 0.151374494 0.641628515"></polygon>
        <polygon id="path-6" points="154.436873 197.745812 161.986494 0.746770349 0.514618337 0.746770349 7.48483841 197.745812"></polygon>
        <polygon id="path-8" points="15.2743666 0.620984563 15.2743666 80.947346 -0.00026481218 80.947346 -0.00026481218 0.620984563 15.2743666 0.620984563"></polygon>
    </defs>
    <g id="Page-1" stroke="none" stroke-width="1" fill="none" fill-rule="evenodd">
        <g id="Artboard-7">
            <g id="Group-11" filter="url(#filter-1)" transform="translate(4.000000, 3.000000)">
                <g id="Page-1" transform="translate(0.636640, 0.874370)">
                    <g id="Group-20" transform="translate(9.599884, 0.155356)">
                        <g id="Group-7" transform="translate(0.490764, 0.490764)">
                            <g id="Fill-8">
                                <mask id="mask-3" fill="white">
                                    <use xlink:href="#path-2"></use>
                                </mask>
                                <use id="Mask" fill="#725DB1" xlink:href="#path-2"></use>
                                <path d="M152.957608,297.253763 C73.8000011,297.253763 9.62983605,233.083598 9.62983605,153.925991 C9.62983605,74.7683838 73.8000011,10.5989754 152.957608,10.5989754 C232.115215,10.5989754 296.284624,74.7683838 296.284624,153.925991 C296.284624,233.083598 232.115215,297.253763 152.957608,297.253763 Z" fill="#DAF6FF" mask="url(#mask-3)"></path>
                            </g>
                            <mask id="mask-5" fill="white">
                                <use xlink:href="#path-4"></use>
                            </mask>
                            <g id="Clip-6"></g>
                        </g>
                        <path d="M234.678566,122.176497 C234.678566,166.87238 198.445198,203.105748 153.748433,203.105748 C109.052551,203.105748 72.8191826,166.87238 72.8191826,122.176497 C72.8191826,77.4806149 109.052551,41.2463642 153.748433,41.2463642 C198.445198,41.2463642 234.678566,77.4806149 234.678566,122.176497" id="Fill-18" fill="#F1784A"></path>
                    </g>
                    <g id="Group-23" transform="translate(82.292222, 120.049349)">
                        <mask id="mask-7" fill="white">
                            <use xlink:href="#path-6"></use>
                        </mask>
                        <g id="Clip-22"></g>
                        <path d="M240.637493,29.0200986 C240.637493,116.672644 169.580893,187.729244 81.9283472,187.729244 C-5.72517852,187.729244 -76.7817783,116.672644 -76.7817783,29.0200986 C-76.7817783,-58.6324471 -5.72517852,-129.689047 81.9283472,-129.689047 C169.580893,-129.689047 240.637493,-58.6324471 240.637493,29.0200986" id="Fill-21" fill="#F1784A" mask="url(#mask-7)"></path>
                    </g>
                    <g id="Group-55" transform="translate(0.000000, 68.453254)">
                        <path d="M141.315944,11.7022291 C141.315944,17.8688221 136.31629,22.8675933 130.150579,22.8675933 C123.983986,22.8675933 118.984332,17.8688221 118.984332,11.7022291 C118.984332,5.53563614 123.983986,0.536864875 130.150579,0.536864875 C136.31629,0.536864875 141.315944,5.53563614 141.315944,11.7022291" id="Fill-26"></path>
                        <path d="M192.691802,174.442731 C192.691802,202.466922 179.432656,220.010728 163.077856,220.010728 C146.722173,220.010728 133.463909,199.879707 133.463909,171.855516 C133.463909,171.855516 146.845752,197.004729 163.201435,197.004729 C179.556235,197.004729 192.691802,174.442731 192.691802,174.442731" id="Fill-28" fill="#010202"></path>
                        <path d="M192.691802,173.441918 C192.691802,190.62558 179.432656,201.381368 163.077856,201.381368 C146.722173,201.381368 133.463909,189.038472 133.463909,171.855693 C133.463909,171.855693 146.845752,187.275706 163.201435,187.275706 C179.556235,187.275706 192.691802,173.441918 192.691802,173.441918" id="Fill-30" fill="#FEFEFE"></path>
                        <path d="M268.848607,100.489693 C268.848607,127.538492 246.922158,149.46494 219.874242,149.46494 C192.825444,149.46494 170.898112,127.538492 170.898112,100.489693 C170.898112,73.440894 192.825444,51.5144454 219.874242,51.5144454 C246.922158,51.5144454 268.848607,73.440894 268.848607,100.489693" id="Fill-32" fill="#F1784A"></path>
                        <path d="M155.257334,100.150115 C155.257334,127.198914 133.330885,149.125363 106.282087,149.125363 C79.2341705,149.125363 57.3068392,127.198914 57.3068392,100.150115 C57.3068392,73.1013165 79.2341705,51.1748679 106.282087,51.1748679 C133.330885,51.1748679 155.257334,73.1013165 155.257334,100.150115" id="Fill-34" fill="#F1784A"></path>
                        <path d="M258.027675,100.725905 C258.027675,121.983262 240.795464,139.215473 219.538107,139.215473 C198.280751,139.215473 181.04854,121.983262 181.04854,100.725905 C181.04854,79.4685488 198.280751,62.2363375 219.538107,62.2363375 C240.795464,62.2363375 258.027675,79.4685488 258.027675,100.725905" id="Fill-36" fill="#FEFEFE"></path>
                        <path d="M144.817908,100.42808 C144.817908,121.84962 127.452408,139.21512 106.030868,139.21512 C84.6084454,139.21512 67.2429453,121.84962 67.2429453,100.42808 C67.2429453,79.0065398 84.6084454,61.6410397 106.030868,61.6410397 C127.452408,61.6410397 144.817908,79.0065398 144.817908,100.42808" id="Fill-38" fill="#FEFEFE"></path>
                        <path d="M117.476845,93.6806655 C117.476845,100.24889 112.152355,105.57338 105.58413,105.57338 C99.0159052,105.57338 93.6914149,100.24889 93.6914149,93.6806655 C93.6914149,87.1124407 99.0159052,81.7879504 105.58413,81.7879504 C112.152355,81.7879504 117.476845,87.1124407 117.476845,93.6806655" id="Fill-40" fill="#010202"></path>
                        <path d="M232.542945,93.6806655 C232.542945,100.24889 227.219338,105.57338 220.65023,105.57338 C214.082888,105.57338 208.758398,100.24889 208.758398,93.6806655 C208.758398,87.1124407 214.082888,81.7879504 220.65023,81.7879504 C227.219338,81.7879504 232.542945,87.1124407 232.542945,93.6806655" id="Fill-42" fill="#010202"></path>
                        <path d="M9.09559223,119.302833 L6.17912742,119.302833 C2.78070444,119.302833 0.000176541455,116.522305 0.000176541455,113.123882 L0.000176541455,45.1554223 C0.000176541455,41.7569993 2.78070444,38.9764714 6.17912742,38.9764714 L9.09559223,38.9764714 C12.4940152,38.9764714 15.2745431,41.7569993 15.2745431,45.1554223 L15.2745431,113.123882 C15.2745431,116.522305 12.4940152,119.302833 9.09559223,119.302833" id="Fill-44" fill="#725DB1"></path>
                        <g id="Group-48" transform="translate(311.044155, 38.355487)">
                            <mask id="mask-9" fill="white">
                                <use xlink:href="#path-8"></use>
                            </mask>
                            <g id="Clip-47"></g>
                            <path d="M9.09603359,80.947346 L6.17868607,80.947346 C2.78114579,80.947346 -0.00026481218,78.1668181 -0.00026481218,74.7683951 L-0.00026481218,6.79993544 C-0.00026481218,3.40151246 2.78114579,0.620984563 6.17868607,0.620984563 L9.09603359,0.620984563 C12.4944566,0.620984563 15.2749845,3.40151246 15.2749845,6.79993544 L15.2749845,74.7683951 C15.2749845,78.1668181 12.4944566,80.947346 9.09603359,80.947346" id="Fill-46" fill="#725DB1" mask="url(#mask-9)"></path>
                        </g>
                    </g>
                </g>
            </g>
        </g>
    </g>
</svg>