<svg viewBox="0 0 60 43" xmlns="http://www.w3.org/2000/svg"><title>logo copy</title><g fill="#777" fill-rule="evenodd"><path d="M3.757 15.768h6.04v5.873h-6.04V15.77zM11.17 15.768h6.04v5.873h-6.04V15.77zM11.17 8.24h6.04v5.87h-6.04V8.24zM18.58 15.768h6.043v5.873H18.58V15.77zM18.58 8.24h6.043v5.87H18.58V8.24zM25.993 15.768h6.042v5.873h-6.042V15.77zM25.993 8.24h6.042v5.87h-6.042V8.24zM33.405 15.768h6.042v5.873h-6.042V15.77zM25.993.708h6.042V6.58h-6.042V.708zM12.194 30.12c-.93 0-1.684.733-1.684 1.636 0 .902.755 1.635 1.684 1.635.928 0 1.683-.732 1.683-1.634 0-.903-.755-1.637-1.683-1.637"/><path d="M58.905 18.806c-2.03-1.138-4.73-1.294-7.03-.636-.283-2.377-1.89-4.46-3.8-5.953l-.758-.593-.638.716c-1.28 1.438-1.66 3.83-1.487 5.666.13 1.35.565 2.722 1.42 3.806-.65.38-1.388.682-2.045.9-1.34.44-2.795.685-4.21.685H.613l-.085.89c-.285 2.972.134 5.947 1.398 8.66l.544 1.078.062.1c3.737 6.17 10.3 8.768 17.452 8.768 13.846 0 25.265-6.01 30.51-18.708 3.505.178 7.09-.83 8.805-4.083l.437-.83-.832-.466zm-46.71 16.056c-1.764 0-3.198-1.394-3.198-3.106 0-1.713 1.434-3.107 3.197-3.107 1.763 0 3.197 1.393 3.197 3.106 0 1.712-1.433 3.106-3.196 3.106z"/></g></svg>